<?xml version="1.0" encoding="UTF-8"?>
<svg xmlns="http://www.w3.org/2000/svg" xmlns:xlink="http://www.w3.org/1999/xlink" viewBox="0 0 1500 500">
  <defs>
    <style>
      .cls-1 {
        letter-spacing: -.04em;
      }

      .cls-2 {
        letter-spacing: -.02em;
      }

      .cls-3 {
        letter-spacing: .02em;
      }

      .cls-4, .cls-5, .cls-6 {
        fill: #fff;
      }

      .cls-7 {
        letter-spacing: .12em;
      }

      .cls-8 {
        fill: none;
      }

      .cls-9 {
        fill: #00cf98;
      }

      .cls-10 {
        fill: url(#radial-gradient);
      }

      .cls-5 {
        font-family: GillSansMT, 'Gill Sans MT';
        font-size: 39.2px;
      }

      .cls-11 {
        letter-spacing: -.02em;
      }

      .cls-12 {
        clip-path: url(#clippath-1);
      }

      .cls-13 {
        isolation: isolate;
      }

      .cls-14 {
        fill: #d0d3d4;
        mix-blend-mode: multiply;
      }

      .cls-6 {
        font-family: TTRoundsNeueTrialVariable-Bold, 'TT Rounds Neue Trial Variable';
        font-size: 7.36px;
        font-variation-settings: 'wdth' 100, 'wght' 712, 'slnt' 0;
        font-weight: 700;
      }

      .cls-15 {
        fill: url(#radial-gradient-2);
      }

      .cls-16 {
        letter-spacing: .12em;
      }

      .cls-17 {
        fill: #15244b;
        opacity: .7;
      }

      .cls-18 {
        fill: url(#linear-gradient);
      }

      .cls-19 {
        clip-path: url(#clippath);
      }

      .cls-20 {
        letter-spacing: -.02em;
      }
    </style>
    <clipPath id="clippath">
      <rect class="cls-8" width="1500" height="500"/>
    </clipPath>
    <clipPath id="clippath-1">
      <rect class="cls-8" x="1580.94" y=".45" width="1500" height="499.55"/>
    </clipPath>
    <linearGradient id="linear-gradient" x1="1687.48" y1="325.49" x2="1687.48" y2="-26.8" gradientUnits="userSpaceOnUse">
      <stop offset="0" stop-color="#ffbf00"/>
      <stop offset="1" stop-color="#ff6b00"/>
    </linearGradient>
    <radialGradient id="radial-gradient" cx="1988.95" cy="125.73" fx="1988.95" fy="125.73" r="438.6" gradientTransform="translate(0 18.3) scale(1 .98)" gradientUnits="userSpaceOnUse">
      <stop offset="0" stop-color="#00457f"/>
      <stop offset="1" stop-color="#00204e"/>
    </radialGradient>
    <radialGradient id="radial-gradient-2" cx="1615.69" cy="356.2" fx="1615.69" fy="356.2" r="438.6" xlink:href="#radial-gradient"/>
  </defs>
  <g class="cls-13">
    <g id="Layer_1" data-name="Layer 1">
      <g class="cls-19">
        <rect class="cls-9" x="3.92" y="-16.85" width="1492.16" height="500"/>
      </g>
      <rect class="cls-17" x="445.3" width="620.94" height="444.7"/>
      <path class="cls-4" d="M771.14,60.84c.49-1.06,1.12-2.04,1.7-3.06,1.33-2.35,2.69-4.69,4.03-7.03,1.17-2.05,2.34-4.09,3.52-6.14.12-.21.22-.46.43-.61.38.54.77,1.08,1.15,1.63,3.32,4.86,6.63,9.73,9.95,14.59.12.18.3.34.32.59-.2.12-.41.07-.61.07-6.62,0-13.25,0-19.87,0-.2,0-.41-.03-.61-.04Z"/>
      <g>
        <g>
          <path class="cls-4" d="M772.51,60.84c-.16.25-.33.49-.48.75-9.45,16.49-18.91,32.97-28.35,49.46-.22.38-.43.6-.93.6-7.38-.02-14.76-.01-22.15-.01h-.5c.02-.33.21-.54.34-.77,7.16-12.55,14.33-25.09,21.5-37.64,4.65-8.13,9.29-16.26,13.94-24.39.12-.22.23-.45.34-.67.55-.79.98-1.65,1.45-2.48,1.4-2.44,2.79-4.88,4.19-7.32,1.19-2.08,2.39-4.17,3.58-6.25.86-1.51,1.71-3.02,2.57-4.53,1.18-2.06,2.37-4.12,3.55-6.18,1.77-3.09,3.53-6.19,5.3-9.28,7.84,0,15.69,0,23.53,0-1.5,2.62-2.99,5.25-4.49,7.86-4.47,7.8-8.94,15.6-13.41,23.4-.11.2-.26.38-.29.62-.22.15-.31.4-.43.61-1.18,2.04-2.34,4.09-3.52,6.14-1.34,2.34-2.7,4.68-4.03,7.03-.58,1.01-1.21,2-1.7,3.06Z"/>
          <path class="cls-4" d="M768,27.58c-.86,1.51-1.71,3.03-2.57,4.53-1.19,2.09-2.38,4.17-3.58,6.25-1.4,2.44-2.79,4.88-4.19,7.32-.48.83-.91,1.69-1.45,2.48-1.03-.02-2.06-.04-3.09-.04-6.28-.03-12.56-.05-18.85-.08-.43,0-.87,0-1.31,0-.1.3.11.49.22.7,2.24,4.31,4.5,8.61,6.75,12.91.55,1.06,1.09,2.12,1.67,3.16.22.39.2.68-.01,1.07-2.43,4.39-4.83,8.79-7.25,13.19-4.23,7.72-8.45,15.43-12.68,23.15-.07.12-.15.23-.2.36-.15.45-.46.53-.9.53-4.22-.02-8.44-.01-12.66-.01-3.16,0-6.33,0-9.49,0-.25,0-.5,0-.78,0-.02-.33.18-.54.31-.76,4.11-7.36,8.23-14.72,12.35-22.07,2.62-4.68,5.23-9.36,7.87-14.03.26-.46.24-.79,0-1.24-6.76-12.23-13.51-24.47-20.26-36.71-.11-.2-.26-.38-.28-.61.11-.18.29-.09.44-.1.18-.02.37,0,.55,0,23.07,0,46.13,0,69.2,0,.07,0,.14,0,.21,0Z"/>
          <path class="cls-4" d="M753.13,103.08c-.01-.28.16-.45.26-.64,5.54-9.92,11.08-19.84,16.61-29.76.26-.46.53-.63,1.06-.63,7.29.02,14.58.01,21.87.02.22,0,.45-.04.67.05.06.23-.09.36-.18.52-5.63,10-11.26,20-16.88,30.01-.21.37-.45.49-.86.49-7.34-.01-14.67,0-22.01-.01-.18,0-.36-.02-.54-.03Z"/>
          <text class="cls-5" transform="translate(677.69 146.23)"><tspan class="cls-7" x="0" y="0">E C S</tspan><tspan class="cls-3" x="110.62" y="0"> </tspan><tspan class="cls-16" x="122.29" y="0">A</tspan></text>
        </g>
        <text class="cls-6" transform="translate(677.59 163.9)"><tspan x="0" y="0">ENGINEERING </tspan><tspan class="cls-2" x="52.22" y="0">C</tspan><tspan x="57.04" y="0">OUNCI</tspan><tspan class="cls-11" x="80.34" y="0">L</tspan><tspan x="84.42" y="0" xml:space="preserve"> O</tspan><tspan class="cls-1" x="91.77" y="0">F</tspan><tspan x="95.91" y="0" xml:space="preserve"> SOUTH</tspan><tspan class="cls-20" x="123.12" y="0"> </tspan><tspan x="124.91" y="0">AFRI</tspan><tspan class="cls-20" x="141.72" y="0">CA</tspan></text>
      </g>
      <g class="cls-12">
        <rect class="cls-18" x="1491.74" y="-177.94" width="391.48" height="666.53"/>
        <polyline class="cls-10" points="2177.42 515.03 2479.85 -231.01 2479.85 -231.02 1800.48 -231.02 1498.05 515.03"/>
        <polyline class="cls-15" points="2043.73 515.03 2346.16 -231.01 2479.85 -231.02 1800.48 -231.02 1498.05 515.03"/>
      </g>
      <polygon class="cls-14" points="1731.45 510.56 1714.31 510.56 1494.8 -38.92 1511.94 -38.92 1731.45 510.56"/>
    </g>
  </g>
</svg>