<?xml version="1.0" encoding="UTF-8"?>
<svg id="Layer_1" data-name="Layer 1" xmlns="http://www.w3.org/2000/svg" xmlns:xlink="http://www.w3.org/1999/xlink" viewBox="0 0 1500 500">
  <defs>
    <style>
      .cls-1 {
        font-family: TTRoundsNeueTrialVariable-Bold, 'TT Rounds Neue Trial Variable';
        font-size: 7.84px;
        font-variation-settings: 'wdth' 100, 'wght' 712, 'slnt' 0;
        font-weight: 700;
      }

      .cls-1, .cls-2 {
        fill: #1d549c;
      }

      .cls-3 {
        letter-spacing: .02em;
      }

      .cls-4, .cls-5 {
        fill: #15244b;
      }

      .cls-6 {
        letter-spacing: -.04em;
      }

      .cls-7 {
        letter-spacing: .12em;
      }

      .cls-8 {
        fill: #fff;
      }

      .cls-9 {
        letter-spacing: .12em;
      }

      .cls-5 {
        font-family: GillSansMT, 'Gill Sans MT';
        font-size: 38.29px;
      }

      .cls-10 {
        fill: none;
      }

      .cls-11 {
        fill: url(#New_Gradient_Swatch_copy_2);
      }

      .cls-12 {
        fill: #e0e0e0;
      }

      .cls-13 {
        fill: #1d60a8;
      }

      .cls-14 {
        letter-spacing: -.02em;
      }

      .cls-15 {
        fill: url(#linear-gradient);
      }

      .cls-16 {
        letter-spacing: 0em;
      }
    </style>
    <linearGradient id="linear-gradient" x1="-4787.37" y1="135.48" x2="-4709.37" y2="135.48" gradientTransform="translate(-3959.37) rotate(-180) scale(1 -1)" gradientUnits="userSpaceOnUse">
      <stop offset="0" stop-color="#c7c7c7" stop-opacity=".88"/>
      <stop offset=".27" stop-color="#cacaca" stop-opacity=".9"/>
      <stop offset=".68" stop-color="#d5d5d5" stop-opacity=".95"/>
      <stop offset="1" stop-color="#e0e0e0"/>
    </linearGradient>
    <linearGradient id="New_Gradient_Swatch_copy_2" data-name="New Gradient Swatch copy 2" x1="-4762.75" y1="135.48" x2="-4733.99" y2="135.48" gradientTransform="translate(-3959.37) rotate(-180) scale(1 -1)" gradientUnits="userSpaceOnUse">
      <stop offset="0" stop-color="#c7c7c7" stop-opacity=".88"/>
      <stop offset=".27" stop-color="#cacaca" stop-opacity=".9"/>
      <stop offset=".68" stop-color="#d5d5d5" stop-opacity=".95"/>
      <stop offset="1" stop-color="#e0e0e0"/>
    </linearGradient>
    <clipPath id="clippath">
      <polygon class="cls-10" points="1157.01 501.97 1155.26 500.53 1155.26 358.98 977.88 212.76 977.88 141.22 806.56 0 1500 0 1500 502.05 1155.26 502.05 1155.26 501.97 1157.01 501.97"/>
    </clipPath>
    <clipPath id="clippath-1">
      <rect class="cls-10" x="1593.19" y="647.43" width="1498.92" height="565.51"/>
    </clipPath>
  </defs>
  <rect class="cls-8" x=".6" y="-.1" width="1499.4" height="502.15"/>
  <g>
    <g>
      <path class="cls-12" d="M34.19,451.45l-3.09,2.48,1.45,2.52,3.7-1.43c.59.73,1.26,1.4,2,2l-1.43,3.7,2.52,1.45,2.48-3.09c.87.34,1.78.59,2.73.73l.61,3.91h2.91l.61-3.91c.95-.15,1.86-.4,2.73-.73l2.48,3.09,2.52-1.45-1.43-3.7c.73-.59,1.4-1.26,2-2l3.7,1.43,1.45-2.52-3.09-2.48c.34-.87.59-1.78.73-2.73l3.92-.61v-2.91l-3.92-.61c-.15-.95-.4-1.86-.73-2.73l3.09-2.48-1.45-2.52-3.7,1.43c-.59-.73-1.26-1.4-2-2l1.43-3.7-2.52-1.45-2.48,3.09c-.87-.34-1.78-.59-2.73-.73l-.61-3.92h-2.91l-.61,3.92c-.95.15-1.86.4-2.73.73l-2.48-3.09-2.52,1.45,1.43,3.7c-.73.59-1.4,1.26-2,2l-3.7-1.43-1.45,2.52,3.09,2.48c-.34.87-.59,1.78-.73,2.73l-3.91.61v2.91s3.91.61,3.91.61c.15.95.4,1.86.73,2.73ZM38.34,446.66c0-4.56,3.7-8.27,8.27-8.27s8.27,3.7,8.27,8.27-3.7,8.27-8.27,8.27-8.27-3.7-8.27-8.27Z"/>
      <path class="cls-12" d="M21.19,456.46l-6.32,5.09,2.98,5.15,7.57-2.93c1.21,1.5,2.58,2.87,4.09,4.09l-2.93,7.57,5.15,2.97,5.09-6.32c1.78.69,3.65,1.2,5.59,1.5l1.24,8.01h5.95l1.24-8.01c1.94-.3,3.81-.81,5.59-1.5l5.08,6.32,5.15-2.97-2.93-7.57c1.5-1.21,2.87-2.58,4.09-4.09l7.57,2.93,2.97-5.15-6.32-5.09c.69-1.78,1.2-3.65,1.5-5.59l8.01-1.24v-5.95l-8.01-1.24c-.3-1.94-.81-3.81-1.5-5.59l6.32-5.09-2.98-5.15-7.57,2.93c-1.21-1.5-2.58-2.87-4.09-4.09l2.93-7.57-5.15-2.98-5.08,6.32c-1.78-.69-3.65-1.2-5.59-1.5l-1.24-8.01h-5.95l-1.24,8.01c-1.94.3-3.81.81-5.58,1.5l-5.08-6.32-5.15,2.97,2.93,7.57c-1.5,1.21-2.87,2.58-4.09,4.09l-7.57-2.93-2.98,5.15,6.32,5.08c-.69,1.78-1.2,3.65-1.5,5.59l-8.01,1.24v5.95s8.01,1.24,8.01,1.24c.3,1.94.81,3.81,1.5,5.59ZM25.41,446.66c0-11.71,9.49-21.2,21.2-21.2s21.2,9.49,21.2,21.2-9.49,21.2-21.2,21.2-21.2-9.49-21.2-21.2Z"/>
    </g>
    <path class="cls-12" d="M8.85,446.66c0-20.82,16.94-37.76,37.76-37.76s37.76,16.94,37.76,37.76-16.94,37.76-37.76,37.76-37.76-16.94-37.76-37.76ZM9.09,446.66c0,20.69,16.83,37.52,37.52,37.52s37.52-16.83,37.52-37.52-16.83-37.52-37.52-37.52-37.52,16.83-37.52,37.52Z"/>
    <g>
      <path class="cls-12" d="M46.61,402.79c-8.83,0-17.06,2.63-23.95,7.13v-.58c6.91-4.45,15.14-7.04,23.95-7.04,21.12,0,38.83,14.83,43.28,34.63l-.47.11c-4.4-19.58-21.92-34.25-42.81-34.25Z"/>
      <path class="cls-12" d="M9.51,422.38h.58c-4.64,6.96-7.35,15.3-7.35,24.27,0,24.19,19.68,43.87,43.87,43.87s41.87-17.74,43.72-40.24l.5-.22c-1.75,22.87-20.92,40.94-44.22,40.94-24.46,0-44.35-19.9-44.35-44.35,0-8.95,2.67-17.29,7.25-24.27Z"/>
    </g>
    <g>
      <path class="cls-12" d="M78.27,413.97l.34-.34c6.32,6.13,10.89,14.04,12.89,22.93l-.47.11c-1.98-8.79-6.51-16.63-12.76-22.7Z"/>
      <path class="cls-12" d="M92.05,449.54l.5-.22c-.77,13.39-7.29,25.26-17.12,33.18l-.34-.34c9.69-7.79,16.14-19.45,16.97-32.62Z"/>
      <path class="cls-12" d="M7.54,422.38h.57c-4.45,7.03-7.03,15.35-7.03,24.27,0,12.29,4.9,23.46,12.84,31.66l-.34.34c-8.03-8.29-12.98-19.57-12.98-32,0-8.9,2.55-17.22,6.94-24.27Z"/>
    </g>
    <g>
      <path class="cls-12" d="M22.66,405.25c7.05-4.09,15.23-6.44,23.95-6.44,18.04,0,33.78,10.04,41.93,24.82l-.42.23c-8.07-14.64-23.65-24.57-41.51-24.57-8.73,0-16.92,2.38-23.95,6.52v-.55Z"/>
      <path class="cls-12" d="M46.61,494.03c14.43,0,27.37-6.49,36.07-16.69l.37.31c-8.78,10.31-21.86,16.87-36.44,16.87-17.78,0-33.33-9.75-41.58-24.18l.42-.24c8.17,14.28,23.56,23.93,41.16,23.93Z"/>
    </g>
    <g>
      <path class="cls-12" d="M20.61,416.57c6.91-5.98,15.89-9.62,25.71-9.69v.24c-9.83.07-18.82,3.75-25.71,9.77v-.32Z"/>
      <path class="cls-12" d="M16.37,420.86h.32c-3.86,4.47-6.75,9.82-8.3,15.7h-.25c1.54-5.87,4.4-11.21,8.24-15.7Z"/>
      <path class="cls-12" d="M21.13,477.19l.17-.17c6.86,5.73,15.69,9.18,25.3,9.18,7.18,0,13.92-1.92,19.73-5.28l.14.2c-5.85,3.39-12.64,5.33-19.87,5.33-9.68,0-18.57-3.48-25.48-9.25Z"/>
    </g>
    <g>
      <rect class="cls-12" x="45.77" y="403.75" width="1.68" height="5.26"/>
      <rect class="cls-12" x="47.49" y="405.7" width="5.26" height="1.68" transform="translate(-359.24 421.02) rotate(-85)"/>
      <rect class="cls-12" x="50.97" y="406.16" width="5.26" height="1.68" transform="translate(-356.52 389.1) rotate(-80)"/>
      <rect class="cls-12" x="54.4" y="406.92" width="5.26" height="1.68" transform="translate(-351.59 357.3) rotate(-75)"/>
      <rect class="cls-12" x="57.75" y="407.97" width="5.26" height="1.68" transform="translate(-344.42 325.71) rotate(-70)"/>
      <rect class="cls-12" x="61" y="409.32" width="5.26" height="1.68" transform="translate(-334.98 294.46) rotate(-65)"/>
      <rect class="cls-12" x="64.11" y="410.94" width="5.26" height="1.68" transform="translate(-323.23 263.66) rotate(-59.99)"/>
      <rect class="cls-12" x="67.08" y="412.83" width="5.26" height="1.68" transform="translate(-309.12 233.48) rotate(-55)"/>
      <g>
        <rect class="cls-12" x="69.86" y="414.97" width="5.26" height="1.68" transform="translate(-292.62 204.05) rotate(-50)"/>
        <rect class="cls-12" x="18.09" y="476.67" width="5.26" height="1.68" transform="translate(-358.38 186.43) rotate(-50)"/>
      </g>
      <g>
        <rect class="cls-12" x="72.46" y="417.34" width="5.26" height="1.68" transform="translate(-273.69 175.55) rotate(-45)"/>
        <rect class="cls-12" x="15.5" y="474.29" width="5.26" height="1.68" transform="translate(-330.66 151.99) rotate(-45)"/>
      </g>
      <g>
        <rect class="cls-12" x="74.83" y="419.93" width="5.26" height="1.68" transform="translate(-252.32 148.2) rotate(-40)"/>
        <rect class="cls-12" x="13.13" y="471.7" width="5.26" height="1.68" transform="translate(-300.08 120.7) rotate(-40)"/>
      </g>
      <g>
        <rect class="cls-12" x="76.97" y="422.72" width="5.26" height="1.68" transform="translate(-228.55 122.26) rotate(-35)"/>
        <rect class="cls-12" x="10.99" y="468.92" width="5.26" height="1.68" transform="translate(-266.98 92.77) rotate(-35)"/>
      </g>
      <g>
        <rect class="cls-12" x="78.86" y="425.68" width="5.26" height="1.68" transform="translate(-202.34 97.88) rotate(-30)"/>
        <rect class="cls-12" x="9.1" y="465.95" width="5.26" height="1.68" transform="translate(-231.83 68.41) rotate(-30)"/>
      </g>
      <g>
        <rect class="cls-12" x="80.48" y="428.8" width="5.26" height="1.68" transform="translate(-173.77 75.36) rotate(-25)"/>
        <rect class="cls-12" x="7.48" y="462.84" width="5.26" height="1.68" transform="translate(-195.03 47.73) rotate(-25)"/>
      </g>
      <g>
        <rect class="cls-12" x="81.82" y="432.04" width="5.26" height="1.68" transform="translate(-142.94 54.98) rotate(-20)"/>
        <rect class="cls-12" x="6.13" y="459.59" width="5.26" height="1.68" transform="translate(-156.93 30.76) rotate(-20)"/>
      </g>
      <rect class="cls-12" x="5.08" y="456.24" width="5.26" height="1.68" transform="translate(-118.01 17.56) rotate(-15)"/>
      <rect class="cls-12" x="4.32" y="452.81" width="5.26" height="1.68" transform="translate(-78.67 8.1) rotate(-10)"/>
      <rect class="cls-12" x="6.11" y="437.03" width="1.68" height="5.26" transform="translate(-427.23 370.05) rotate(-79.99)"/>
      <g>
        <rect class="cls-12" x="84.67" y="454.45" width="1.68" height="5.26" transform="translate(-378.12 421.32) rotate(-74.99)"/>
        <rect class="cls-12" x="6.87" y="433.6" width="1.68" height="5.26" transform="translate(-415.64 330.72) rotate(-74.99)"/>
      </g>
      <rect class="cls-12" x="83.61" y="457.8" width="1.68" height="5.26" transform="translate(-377.08 382.23) rotate(-69.99)"/>
      <rect class="cls-12" x="82.27" y="461.05" width="1.68" height="5.26" transform="translate(-372.26 343.07) rotate(-65)"/>
      <rect class="cls-12" x="80.65" y="464.16" width="1.68" height="5.26" transform="translate(-363.49 303.89) rotate(-59.99)"/>
      <rect class="cls-12" x="78.76" y="467.13" width="1.68" height="5.26" transform="translate(-350.83 265.46) rotate(-54.99)"/>
      <rect class="cls-12" x="76.62" y="469.91" width="1.68" height="5.26" transform="translate(-334.3 228.1) rotate(-50)"/>
      <rect class="cls-12" x="74.24" y="472.5" width="1.68" height="5.26" transform="translate(-313.95 192.22) rotate(-44.99)"/>
      <rect class="cls-12" x="71.65" y="474.88" width="1.68" height="5.26" transform="translate(-289.92 158.26) rotate(-39.99)"/>
      <rect class="cls-12" x="68.87" y="477.02" width="1.68" height="5.26" transform="translate(-262.44 126.66) rotate(-34.99)"/>
      <rect class="cls-12" x="65.9" y="478.9" width="1.68" height="5.26" transform="translate(-231.81 97.87) rotate(-30)"/>
    </g>
  </g>
  <g>
    <path class="cls-15" d="M760.62,146.42l-7.06,5.68,3.32,5.75,8.45-3.27c1.36,1.68,2.89,3.21,4.56,4.56l-3.27,8.45,5.75,3.32,5.68-7.05c1.99.77,4.07,1.34,6.24,1.67l1.39,8.95h6.64l1.39-8.95c2.16-.34,4.25-.91,6.24-1.67l5.68,7.05,5.75-3.32-3.27-8.45c1.68-1.35,3.21-2.88,4.56-4.56l8.45,3.27,3.32-5.75-7.06-5.68c.77-1.99,1.34-4.07,1.67-6.24l8.95-1.39v-6.64l-8.95-1.39c-.34-2.16-.91-4.25-1.67-6.24l7.06-5.68-3.32-5.76-8.45,3.27c-1.36-1.68-2.89-3.21-4.56-4.56l3.27-8.45-5.75-3.32-5.68,7.06c-1.99-.77-4.07-1.34-6.24-1.67l-1.39-8.95h-6.64l-1.39,8.95c-2.16.33-4.25.91-6.24,1.67l-5.68-7.06-5.75,3.32,3.27,8.45c-1.68,1.36-3.21,2.89-4.56,4.56l-8.45-3.27-3.32,5.75,7.06,5.68c-.77,1.99-1.34,4.07-1.67,6.24l-8.95,1.39v6.64s8.95,1.39,8.95,1.39c.34,2.16.91,4.25,1.67,6.24ZM765.34,135.47c0-13.07,10.6-23.67,23.67-23.67s23.67,10.6,23.67,23.67-10.59,23.67-23.67,23.67-23.67-10.6-23.67-23.67Z"/>
    <path class="cls-11" d="M774.62,135.47c0,7.95,6.44,14.38,14.38,14.38s14.38-6.44,14.38-14.38-6.44-14.38-14.38-14.38-14.38,6.44-14.38,14.38Z"/>
  </g>
  <path class="cls-12" d="M935.92,398.39l-4.68-10.45-8.1,2.22,1.29,11.38c-2.49,1.12-4.85,2.5-7.04,4.12l-9.28-6.71-5.91,5.97,6.81,9.2c-1.58,2.18-2.94,4.55-4.05,7.09l-11.39-1.17-2.13,8.12,10.49,4.57c-.28,2.75-.25,5.49.05,8.16l-10.45,4.68,2.22,8.1,11.38-1.29c1.12,2.49,2.5,4.85,4.12,7.04l-6.71,9.28,5.97,5.91,9.2-6.81c2.18,1.57,4.55,2.94,7.09,4.05l-1.17,11.38,8.12,2.13,4.57-10.49c2.75.28,5.49.25,8.16-.05l4.68,10.45,8.1-2.22-1.29-11.38c2.49-1.12,4.85-2.5,7.04-4.12l9.28,6.71,5.91-5.97-6.81-9.2c1.57-2.18,2.94-4.55,4.05-7.09l11.39,1.17,2.13-8.12-10.49-4.57c.28-2.75.25-5.49-.05-8.16l10.45-4.68-2.22-8.1-11.38,1.29c-1.12-2.49-2.5-4.85-4.12-7.04l6.71-9.28-5.97-5.91-9.2,6.81c-2.18-1.58-4.55-2.94-7.09-4.05l1.17-11.38-8.12-2.13-4.57,10.5c-2.75-.28-5.49-.25-8.16.05ZM947.8,407.66c15.98,4.19,25.54,20.54,21.35,36.53-4.19,15.98-20.54,25.54-36.53,21.35-15.98-4.19-25.54-20.54-21.35-36.53,4.19-15.98,20.54-25.54,36.53-21.35Z"/>
  <path class="cls-12" d="M1000.75,454.03l-2.15-4.8-3.72,1.02.59,5.23c-1.14.52-2.23,1.15-3.24,1.89l-4.27-3.09-2.72,2.75,3.13,4.23c-.73,1-1.35,2.09-1.86,3.26l-5.23-.54-.98,3.73,4.83,2.1c-.13,1.27-.12,2.52.02,3.75l-4.8,2.15,1.02,3.72,5.23-.59c.52,1.14,1.15,2.23,1.89,3.24l-3.09,4.27,2.75,2.72,4.23-3.13c1,.72,2.09,1.35,3.26,1.86l-.54,5.23,3.74.98,2.1-4.82c1.27.13,2.52.12,3.75-.02l2.15,4.8,3.72-1.02-.6-5.23c1.14-.52,2.23-1.15,3.24-1.89l4.27,3.09,2.72-2.75-3.13-4.23c.72-1,1.35-2.09,1.86-3.26l5.23.54.98-3.73-4.83-2.1c.13-1.27.12-2.52-.02-3.75l4.8-2.15-1.02-3.72-5.23.6c-.51-1.14-1.15-2.23-1.89-3.24l3.09-4.27-2.74-2.72-4.23,3.13c-1-.72-2.09-1.35-3.26-1.86l.54-5.23-3.73-.98-2.1,4.83c-1.27-.13-2.52-.12-3.75.02ZM1006.21,458.3c7.35,1.93,11.74,9.44,9.82,16.79-1.93,7.35-9.44,11.74-16.79,9.82-7.35-1.93-11.74-9.44-9.82-16.79,1.93-7.35,9.45-11.74,16.79-9.82Z"/>
  <polygon class="cls-4" points="809.34 0 977.64 141.22 977.64 219.1 716.52 0 809.34 0"/>
  <polygon class="cls-13" points="765.18 0 834.24 57.95 834.24 166.34 636.01 0 765.18 0"/>
  <polygon class="cls-2" points="1157.01 501.97 798.55 205.13 798.55 62.48 1155.26 358.98 1157.01 501.97"/>
  <polygon class="cls-13" points="1080.37 501.97 1028.93 458.8 1028.93 397.35 1155.26 502.05 1080.37 501.97"/>
  <g>
    <g>
      <path class="cls-4" d="M406.22,52.42c-.16.24-.32.48-.46.73-9.23,16.1-18.47,32.21-27.69,48.31-.21.37-.42.59-.91.59-7.21-.02-14.42-.01-21.63-.01h-.49c.02-.32.21-.53.34-.75,7-12.26,14-24.51,21-36.76,4.54-7.94,9.08-15.88,13.61-23.83.12-.21.22-.44.33-.65.53-.77.95-1.61,1.42-2.42,1.37-2.38,2.73-4.77,4.09-7.15,1.16-2.04,2.33-4.07,3.49-6.11.84-1.47,1.67-2.95,2.51-4.43,1.16-2.01,2.31-4.02,3.47-6.03,1.73-3.02,3.45-6.04,5.17-9.06,7.66,0,15.32,0,22.98,0-1.46,2.56-2.92,5.12-4.39,7.68-4.37,7.62-8.73,15.24-13.1,22.85-.11.19-.26.37-.28.6-.21.15-.3.39-.42.6-1.15,1.99-2.29,4-3.43,5.99-1.31,2.29-2.63,4.57-3.93,6.87-.56.99-1.18,1.95-1.66,2.99Z"/>
      <g>
        <path class="cls-2" d="M401.82,19.94c-.84,1.48-1.67,2.96-2.51,4.43-1.16,2.04-2.33,4.07-3.49,6.11-1.36,2.38-2.73,4.77-4.09,7.15-.47.81-.89,1.65-1.42,2.42-1.01-.01-2.01-.04-3.02-.04-6.14-.03-12.27-.05-18.41-.08-.42,0-.85,0-1.28,0-.1.29.11.48.21.68,2.19,4.21,4.39,8.41,6.59,12.61.54,1.03,1.06,2.07,1.63,3.09.21.38.19.67-.01,1.05-2.37,4.29-4.72,8.59-7.08,12.89-4.13,7.54-8.26,15.07-12.39,22.61-.06.12-.15.23-.19.35-.14.44-.45.52-.88.52-4.12-.02-8.24,0-12.36,0-3.09,0-6.18,0-9.27,0-.25,0-.49,0-.76,0-.02-.32.18-.52.3-.74,4.02-7.19,8.04-14.38,12.06-21.56,2.56-4.57,5.11-9.14,7.69-13.7.26-.45.23-.77,0-1.21-6.61-11.95-13.2-23.9-19.79-35.86-.11-.19-.26-.37-.28-.6.11-.18.28-.09.43-.1.18-.02.36,0,.54,0,22.53,0,45.06,0,67.59,0,.07,0,.13,0,.2,0Z"/>
        <path class="cls-2" d="M387.29,93.68c-.01-.27.15-.44.26-.63,5.41-9.69,10.82-19.38,16.22-29.07.25-.45.51-.62,1.04-.62,7.12.02,14.24.01,21.36.01.22,0,.44-.04.65.05.06.22-.09.35-.17.5-5.5,9.77-11,19.54-16.49,29.31-.2.36-.44.48-.84.48-7.16-.01-14.33,0-21.49-.01-.17,0-.35-.02-.53-.02Z"/>
        <path class="cls-2" d="M406.22,52.42c.48-1.04,1.1-2,1.66-2.99,1.3-2.29,2.62-4.58,3.93-6.87,1.14-2,2.28-4,3.43-5.99.12-.21.21-.45.42-.6.37.53.75,1.05,1.12,1.59,3.24,4.75,6.48,9.5,9.72,14.25.12.18.29.33.31.57-.2.12-.4.07-.59.07-6.47,0-12.94,0-19.41,0-.2,0-.4-.03-.6-.04Z"/>
      </g>
    </g>
    <text class="cls-5" transform="translate(310.76 135.83)"><tspan class="cls-7" x="0" y="0">E C S</tspan><tspan class="cls-3" x="108.05" y="0"> </tspan><tspan class="cls-9" x="119.45" y="0">A</tspan></text>
    <text class="cls-1" transform="translate(302.48 153.08)"><tspan x="0" y="0">ENGINEERING </tspan><tspan class="cls-14" x="55.67" y="0">C</tspan><tspan x="60.81" y="0">OUNCI</tspan><tspan class="cls-14" x="85.65" y="0">L</tspan><tspan class="cls-16" x="90" y="0" xml:space="preserve"> O</tspan><tspan class="cls-6" x="97.83" y="0">F</tspan><tspan class="cls-16" x="102.24" y="0" xml:space="preserve"> SOUTH</tspan><tspan class="cls-14" x="131.25" y="0"> </tspan><tspan x="133.16" y="0">AFRI</tspan><tspan class="cls-14" x="151.09" y="0">CA</tspan></text>
  </g>
</svg>