<?xml version="1.0" encoding="UTF-8"?>
<svg id="Layer_1" xmlns="http://www.w3.org/2000/svg" xmlns:xlink="http://www.w3.org/1999/xlink" viewBox="0 0 595.28 841.89">
  <defs>
    <style>
      .cls-1, .cls-2, .cls-3, .cls-4, .cls-5, .cls-6, .cls-7 {
        font-family: ArialMT, Arial;
      }

      .cls-1, .cls-8 {
        fill: #15244b;
      }

      .cls-1, .cls-9, .cls-6, .cls-10 {
        font-size: 11.07px;
      }

      .cls-11 {
        stroke-dasharray: 3.91 3.91;
      }

      .cls-11, .cls-12, .cls-13, .cls-14, .cls-15, .cls-16 {
        fill: none;
      }

      .cls-11, .cls-12, .cls-14, .cls-15 {
        stroke-width: 2px;
      }

      .cls-11, .cls-12, .cls-14, .cls-15, .cls-16 {
        stroke: #15244b;
        stroke-miterlimit: 10;
      }

      .cls-11, .cls-14, .cls-15 {
        stroke-linecap: round;
      }

      .cls-17 {
        letter-spacing: -.02em;
      }

      .cls-2, .cls-18 {
        letter-spacing: -.04em;
      }

      .cls-2, .cls-3, .cls-4, .cls-9, .cls-6, .cls-19, .cls-7 {
        fill: #2c4482;
      }

      .cls-20 {
        clip-path: url(#clippath-6);
      }

      .cls-21 {
        clip-path: url(#clippath-7);
      }

      .cls-22 {
        letter-spacing: -.06em;
      }

      .cls-23 {
        letter-spacing: -.02em;
      }

      .cls-24, .cls-3 {
        letter-spacing: -.07em;
      }

      .cls-25 {
        clip-path: url(#clippath-4);
      }

      .cls-4, .cls-26 {
        letter-spacing: -.07em;
      }

      .cls-27 {
        fill: #0c55a2;
      }

      .cls-28 {
        letter-spacing: -.07em;
      }

      .cls-14 {
        stroke-dasharray: 4.03 4.03;
      }

      .cls-29 {
        letter-spacing: 0em;
      }

      .cls-30 {
        clip-path: url(#clippath-1);
      }

      .cls-31 {
        clip-path: url(#clippath-5);
      }

      .cls-32 {
        letter-spacing: -.02em;
      }

      .cls-33 {
        letter-spacing: -.04em;
      }

      .cls-34 {
        clip-path: url(#clippath-3);
      }

      .cls-35 {
        letter-spacing: 0em;
      }

      .cls-36 {
        font-family: MyriadPro-Regular, 'Myriad Pro';
      }

      .cls-37 {
        letter-spacing: -.02em;
      }

      .cls-38 {
        clip-path: url(#clippath-2);
      }

      .cls-19, .cls-39, .cls-40 {
        font-family: Arial-BoldMT, Arial;
        font-weight: 700;
      }

      .cls-39 {
        fill: #fff;
        font-size: 9.43px;
      }

      .cls-41 {
        letter-spacing: 0em;
      }

      .cls-42 {
        clip-path: url(#clippath);
      }

      .cls-16 {
        stroke-width: 3px;
      }

      .cls-43 {
        letter-spacing: -.02em;
      }
    </style>
    <clipPath id="clippath">
      <path class="cls-13" d="M119.39,365.38c0,17.94,14.54,32.48,32.48,32.48s32.48-14.54,32.48-32.48-14.54-32.48-32.48-32.48-32.48,14.54-32.48,32.48Z"/>
    </clipPath>
    <clipPath id="clippath-1">
      <path class="cls-12" d="M408.4,669.25c0,17.94,14.54,32.48,32.48,32.48s32.48-14.54,32.48-32.48-14.54-32.48-32.48-32.48-32.48,14.54-32.48,32.48Z"/>
    </clipPath>
    <clipPath id="clippath-2">
      <path class="cls-12" d="M119.39,497.23c0,17.94,14.54,32.48,32.48,32.48s32.48-14.54,32.48-32.48-14.54-32.48-32.48-32.48-32.48,14.54-32.48,32.48Z"/>
    </clipPath>
    <clipPath id="clippath-3">
      <path class="cls-12" d="M408.4,544.65c0,17.94,14.54,32.48,32.48,32.48s32.48-14.54,32.48-32.48-14.54-32.48-32.48-32.48-32.48,14.54-32.48,32.48Z"/>
    </clipPath>
    <clipPath id="clippath-4">
      <path class="cls-13" d="M408.4,406.88c0,17.94,14.54,32.48,32.48,32.48s32.48-14.54,32.48-32.48-14.54-32.48-32.48-32.48-32.48,14.54-32.48,32.48Z"/>
    </clipPath>
    <clipPath id="clippath-5">
      <path class="cls-12" d="M256.2,212.88c0,17.94,14.54,32.48,32.48,32.48s32.48-14.54,32.48-32.48-14.54-32.48-32.48-32.48-32.48,14.54-32.48,32.48Z"/>
    </clipPath>
    <clipPath id="clippath-6">
      <path class="cls-12" d="M28.78,253.59c0,17.94,14.54,32.48,32.48,32.48s32.48-14.54,32.48-32.48-14.54-32.48-32.48-32.48-32.48,14.54-32.48,32.48Z"/>
    </clipPath>
    <clipPath id="clippath-7">
      <path class="cls-13" d="M483.76,253.59c0,17.94,14.54,32.48,32.48,32.48s32.48-14.54,32.48-32.48-14.54-32.48-32.48-32.48-32.48,14.54-32.48,32.48Z"/>
    </clipPath>
  </defs>
  <line class="cls-12" x1="288.85" y1="664.88" x2="408.4" y2="664.88"/>
  <line class="cls-12" x1="288.85" y1="542.24" x2="412.06" y2="542.24"/>
  <line class="cls-12" x1="174.65" y1="497.34" x2="289.67" y2="497.34"/>
  <line class="cls-12" x1="290.59" y1="409.06" x2="405.61" y2="409.06"/>
  <line class="cls-12" x1="184.35" y1="615.82" x2="289.67" y2="615.82"/>
  <line class="cls-12" x1="175.55" y1="365.27" x2="289.67" y2="365.27"/>
  <path class="cls-27" d="M324.7,105.68c0,19.15-15.53,34.68-34.68,34.68s-34.68-15.53-34.68-34.68,15.53-34.68,34.68-34.68,34.68,15.53,34.68,34.68Z"/>
  <text class="cls-39" transform="translate(261.2 103.74)"><tspan x="0" y="0">GOVERNING</tspan><tspan x="7.43" y="11.32">COUNCI</tspan><tspan class="cls-17" x="44.64" y="11.32">L</tspan></text>
  <path class="cls-12" d="M251.72,105.69c0-21.16,17.15-38.31,38.31-38.31s38.31,17.15,38.31,38.31"/>
  <circle cx="274.95" cy="148.51" r="4.13"/>
  <circle class="cls-8" cx="288.56" cy="148.51" r="4.13"/>
  <circle cx="302.17" cy="148.51" r="4.13"/>
  <text class="cls-6" transform="translate(3.83 317.75)"><tspan x="0" y="0">COUNCI</tspan><tspan class="cls-18" x="43.66" y="0">L</tspan><tspan class="cls-29" x="49.41" y="0" xml:space="preserve"> SECRE</tspan><tspan class="cls-26" x="90.62" y="0">T</tspan><tspan x="96.56" y="0">A</tspan><tspan class="cls-43" x="103.95" y="0">RY</tspan></text>
  <text class="cls-6" transform="translate(211.44 274.28)"><tspan x="0" y="0">CHIEF EXECUTIVE OFFICER </tspan></text>
  <text class="cls-9" transform="translate(409.65 464.36)"><tspan class="cls-40"><tspan x="0" y="0">EXECUTIVE:</tspan></tspan><tspan class="cls-5"><tspan x="-28.61" y="13.28">S</tspan><tspan class="cls-28" x="-21.23" y="13.28">TA</tspan><tspan x="-8.72" y="13.28">TU</tspan><tspan class="cls-32" x="6.03" y="13.28">T</tspan><tspan x="12.59" y="13.28">O</tspan><tspan class="cls-32" x="21.2" y="13.28">RY</tspan><tspan x="36.18" y="13.28" xml:space="preserve"> SE</tspan><tspan class="cls-37" x="54.02" y="13.28">R</tspan><tspan class="cls-35" x="61.82" y="13.28">VICES</tspan></tspan></text>
  <text class="cls-9" transform="translate(119.33 684.18)"><tspan class="cls-40"><tspan x="0" y="0">EXECUTIVE:</tspan></tspan><tspan class="cls-5"><tspan x="-30.65" y="13.28">IMPROPER CONDUC</tspan><tspan class="cls-43" x="80.05" y="13.28">T</tspan><tspan x="86.62" y="13.28" xml:space="preserve"> &amp;</tspan></tspan><tspan class="cls-5"><tspan x="-10.96" y="26.57" xml:space="preserve"> ENFORCEMEN</tspan><tspan class="cls-32" x="70.83" y="26.57">T</tspan></tspan></text>
  <text class="cls-9" transform="translate(118.65 559.26)"><tspan class="cls-40"><tspan x="0" y="0">EXECUTIVE:</tspan></tspan><tspan class="cls-5"><tspan x="-30.86" y="13.28">CORPOR</tspan><tspan class="cls-24" x="17.73" y="13.28">A</tspan><tspan x="24.29" y="13.28">TE SE</tspan><tspan class="cls-32" x="56.28" y="13.28">R</tspan><tspan x="64.07" y="13.28">VICES</tspan></tspan></text>
  <text class="cls-9" transform="translate(415.11 606.68)"><tspan class="cls-40"><tspan x="0" y="0">EXECUTIVE:</tspan></tspan><tspan class="cls-5"><tspan x="-28.08" y="13.28">STR</tspan><tspan class="cls-28" x="-5.94" y="13.28">A</tspan><tspan x=".62" y="13.28">TEG</tspan><tspan class="cls-23" x="23.37" y="13.28">Y</tspan><tspan class="cls-41" x="30.56" y="13.28" xml:space="preserve"> &amp; GROWTH</tspan></tspan></text>
  <text class="cls-6" transform="translate(378.32 734.8)"><tspan x="0" y="0">(ACTING) CHIEF FINANCIA</tspan><tspan class="cls-33" x="140.21" y="0">L</tspan><tspan x="48.69" y="13.28">OFFICER</tspan></text>
  <g>
    <path class="cls-16" d="M184.35,365.38c0,17.94-14.54,32.48-32.48,32.48s-32.48-14.54-32.48-32.48,14.54-32.48,32.48-32.48,32.48,14.54,32.48,32.48Z"/>
    <g class="cls-42">
      <image width="2400" height="3600" transform="translate(118.61 328.88) scale(.03)" xlink:href="../OneDrive - Engineering Council of South Africa/GALLERY/Exec/DTOI7789.jpg"/>
    </g>
  </g>
  <g>
    <path class="cls-16" d="M408.4,669.25c0,17.94,14.54,32.48,32.48,32.48s32.48-14.54,32.48-32.48-14.54-32.48-32.48-32.48-32.48,14.54-32.48,32.48Z"/>
    <g>
      <g class="cls-30">
        <image width="2400" height="3600" transform="translate(407.4 627.73) scale(.03)" xlink:href="../OneDrive - Engineering Council of South Africa/GALLERY/Exec/DTOI7744.jpg"/>
      </g>
      <path class="cls-12" d="M408.4,669.25c0,17.94,14.54,32.48,32.48,32.48s32.48-14.54,32.48-32.48-14.54-32.48-32.48-32.48-32.48,14.54-32.48,32.48Z"/>
    </g>
  </g>
  <g>
    <path class="cls-16" d="M184.35,497.23c0,17.94-14.54,32.48-32.48,32.48s-32.48-14.54-32.48-32.48,14.54-32.48,32.48-32.48,32.48,14.54,32.48,32.48Z"/>
    <g>
      <g class="cls-38">
        <image width="2400" height="3600" transform="translate(117.85 462.45) scale(.03)" xlink:href="../OneDrive - Engineering Council of South Africa/GALLERY/Exec/DTOI7805.jpg"/>
      </g>
      <path class="cls-12" d="M119.39,497.23c0,17.94,14.54,32.48,32.48,32.48s32.48-14.54,32.48-32.48-14.54-32.48-32.48-32.48-32.48,14.54-32.48,32.48Z"/>
    </g>
  </g>
  <text class="cls-1" transform="translate(393.96 453.5)"><tspan x="0" y="0">Dr Franciska Bothma </tspan></text>
  <text class="cls-1" transform="translate(98.35 414.8)"><tspan x="0" y="0">Mr Edmund Nxumalo </tspan></text>
  <text class="cls-1" transform="translate(132.04 669.25)"><tspan x="0" y="0">(</tspan><tspan class="cls-24" x="3.69" y="0">V</tspan><tspan x="10.25" y="0">acant)</tspan></text>
  <text class="cls-1" transform="translate(94.65 546.54)"><tspan x="0" y="0">Ms Keolebogile Modise</tspan></text>
  <text class="cls-1" transform="translate(409.26 593.96)"><tspan x="0" y="0">Mr </tspan><tspan class="cls-22" x="15.98" y="0">V</tspan><tspan x="22.76" y="0">oltaire Shai</tspan></text>
  <text class="cls-1" transform="translate(388.74 719.12)"><tspan x="0" y="0">Ms Francina Molelemane</tspan></text>
  <line class="cls-12" x1="289.13" y1="664.71" x2="289.13" y2="279.07"/>
  <g>
    <path class="cls-16" d="M184.35,619.6c0,17.94-14.54,32.48-32.48,32.48s-32.48-14.54-32.48-32.48,14.54-32.48,32.48-32.48,32.48,14.54,32.48,32.48Z"/>
    <g>
      <path d="M151.87,605.15c3.45,0,6.24,2.83,6.24,6.32s-2.79,6.32-6.24,6.32-6.24-2.83-6.24-6.32c0-3.49,2.79-6.31,6.24-6.32M151.87,604.25c-3.94,0-7.13,3.23-7.13,7.22s3.19,7.22,7.13,7.22,7.13-3.23,7.13-7.22-3.19-7.22-7.13-7.22h0Z"/>
      <path d="M166.13,634.94h-.89v-7c-.02-.96-.47-1.86-1.21-2.45-1.95-1.52-4.19-2.62-6.58-3.24-1.81-.56-3.69-.85-5.58-.86-1.89.03-3.77.32-5.58.86-2.36.7-4.59,1.8-6.59,3.25-.74.59-1.18,1.48-1.2,2.44v7h-.89v-7c.02-1.23.59-2.39,1.55-3.15,2.09-1.52,4.42-2.67,6.89-3.4,1.89-.56,3.85-.86,5.82-.89,1.97,0,3.94.31,5.83.89,2.5.65,4.84,1.81,6.89,3.41.96.76,1.52,1.92,1.54,3.15v7Z"/>
    </g>
  </g>
  <g>
    <path class="cls-16" d="M408.4,544.65c0,17.94,14.54,32.48,32.48,32.48s32.48-14.54,32.48-32.48-14.54-32.48-32.48-32.48-32.48,14.54-32.48,32.48Z"/>
    <g>
      <g class="cls-34">
        <image width="2400" height="3600" transform="translate(406.63 504.35) scale(.03)" xlink:href="../OneDrive - Engineering Council of South Africa/GALLERY/Exec/DTOI7865.jpg"/>
      </g>
      <path class="cls-12" d="M408.4,544.65c0,17.94,14.54,32.48,32.48,32.48s32.48-14.54,32.48-32.48-14.54-32.48-32.48-32.48-32.48,14.54-32.48,32.48Z"/>
    </g>
  </g>
  <g>
    <path class="cls-16" d="M473.36,406.88c0,17.94-14.54,32.48-32.48,32.48s-32.48-14.54-32.48-32.48,14.54-32.48,32.48-32.48,32.48,14.54,32.48,32.48Z"/>
    <g class="cls-25">
      <image width="2400" height="3600" transform="translate(407.03 370.45) scale(.03)" xlink:href="../OneDrive - Engineering Council of South Africa/GALLERY/Exec/DTOI7721.jpg"/>
    </g>
  </g>
  <path class="cls-16" d="M256.2,212.88c0,17.94,14.54,32.48,32.48,32.48s32.48-14.54,32.48-32.48-14.54-32.48-32.48-32.48-32.48,14.54-32.48,32.48Z"/>
  <text class="cls-1" transform="translate(10.74 302.27)"><tspan x="0" y="0">Ms Pertunia Mohlabi</tspan></text>
  <text class="cls-1" transform="translate(240.33 259.95)"><tspan x="0" y="0">Dr Bridget Ssamula</tspan></text>
  <g>
    <g class="cls-31">
      <image width="2400" height="3600" transform="translate(254.44 177.56) scale(.03)" xlink:href="../OneDrive - Engineering Council of South Africa/GALLERY/Exec/DTOI7832-min (1).jpg"/>
    </g>
    <path class="cls-12" d="M256.2,212.88c0,17.94,14.54,32.48,32.48,32.48s32.48-14.54,32.48-32.48-14.54-32.48-32.48-32.48-32.48,14.54-32.48,32.48Z"/>
  </g>
  <polyline class="cls-12" points="275.69 154.43 275.69 167.73 58.78 167.73 58.78 225.49"/>
  <polyline class="cls-12" points="301.88 154.43 301.88 167.73 520.4 167.73 520.4 223.6"/>
  <line class="cls-12" x1="289.06" y1="154.43" x2="289.06" y2="181.69"/>
  <text class="cls-10" transform="translate(118.66 427.97)"><tspan class="cls-19"><tspan x="0" y="0">EXECUTIVE:</tspan></tspan><tspan class="cls-7"><tspan x="-38.87" y="13.28">REGUL</tspan><tspan class="cls-26" x="-.73" y="13.28">A</tspan><tspan class="cls-43" x="5.83" y="13.28">T</tspan><tspan x="12.39" y="13.28">O</tspan><tspan class="cls-32" x="21" y="13.28">RY</tspan><tspan x="35.98" y="13.28" xml:space="preserve"> SE</tspan><tspan class="cls-32" x="53.82" y="13.28">R</tspan><tspan x="61.62" y="13.28">VICES &amp;</tspan></tspan><tspan class="cls-7" x="-42.95" y="26.57">INTERN</tspan><tspan class="cls-4" x="-1.75" y="26.57">A</tspan><tspan class="cls-7" x="4.81" y="26.57">TIONA</tspan><tspan class="cls-2" x="38.64" y="26.57">L</tspan><tspan class="cls-7" x="44.38" y="26.57" xml:space="preserve"> REL</tspan><tspan class="cls-3" x="68.99" y="26.57">A</tspan><tspan class="cls-7" x="75.56" y="26.57">TIONS</tspan><tspan class="cls-36" x="109.38" y="26.57"> </tspan></text>
  <text class="cls-9" transform="translate(492.37 313.56)"><tspan class="cls-40"><tspan x="0" y="0">EXECUTIVE:</tspan></tspan><tspan class="cls-5"><tspan x="-32.29" y="13.28">COMBINED</tspan><tspan class="cls-22" x="27.36" y="13.28"> </tspan><tspan class="cls-35" x="29.83" y="13.28">ASSURANCE</tspan></tspan></text>
  <text class="cls-1" transform="translate(460.63 298.09)"><tspan x="0" y="0">Ms Matumelo Masongwa</tspan></text>
  <g>
    <path class="cls-16" d="M93.74,253.59c0,17.94-14.54,32.48-32.48,32.48s-32.48-14.54-32.48-32.48,14.54-32.48,32.48-32.48,32.48,14.54,32.48,32.48Z"/>
    <g>
      <g class="cls-20">
        <image width="2400" height="3600" transform="translate(27.13 220.24) scale(.03)" xlink:href="../OneDrive - Engineering Council of South Africa/GALLERY/Exec/DTOI0698 (1).jpg"/>
      </g>
      <path class="cls-12" d="M28.78,253.59c0,17.94,14.54,32.48,32.48,32.48s32.48-14.54,32.48-32.48-14.54-32.48-32.48-32.48-32.48,14.54-32.48,32.48Z"/>
    </g>
  </g>
  <g>
    <polygon class="cls-8" points="246.56 214.35 234 210.5 236.52 222.54 246.56 214.35"/>
    <g>
      <line class="cls-8" x1="235.26" y1="216.52" x2="92.57" y2="242.48"/>
      <g>
        <line class="cls-15" x1="235.26" y1="216.52" x2="233.29" y2="216.88"/>
        <line class="cls-14" x1="229.33" y1="217.6" x2="96.52" y2="241.76"/>
        <line class="cls-15" x1="94.54" y1="242.12" x2="92.57" y2="242.48"/>
      </g>
    </g>
  </g>
  <g>
    <polygon class="cls-8" points="331.02 215.08 343.87 210.93 341.29 223.9 331.02 215.08"/>
    <g>
      <line class="cls-8" x1="342.58" y1="217.42" x2="488.57" y2="245.36"/>
      <g>
        <line class="cls-15" x1="342.58" y1="217.42" x2="344.54" y2="217.79"/>
        <line class="cls-11" x1="348.38" y1="218.53" x2="484.69" y2="244.62"/>
        <line class="cls-15" x1="486.61" y1="244.99" x2="488.57" y2="245.36"/>
      </g>
    </g>
  </g>
  <g>
    <path class="cls-16" d="M548.72,253.59c0,17.94-14.54,32.48-32.48,32.48s-32.48-14.54-32.48-32.48,14.54-32.48,32.48-32.48,32.48,14.54,32.48,32.48Z"/>
    <g class="cls-21">
      <image width="2400" height="3600" transform="translate(482.46 221.11) scale(.03)" xlink:href="../OneDrive - Engineering Council of South Africa/GALLERY/Exec/DTOI7879 (1).jpg"/>
    </g>
  </g>
</svg>